HIERARCHY
ROOT Hips
{
    OFFSET 0.000000 0.000000 0.000000
    CHANNELS 6 Xposition Yposition Zposition Zrotation Xrotation Yrotation
    JOINT Spine
    {
        OFFSET -0.000000 14.517291 0.000000
        CHANNELS 3 Zrotation Xrotation Yrotation
        JOINT Spine1
        {
            OFFSET -0.000000 37.558300 0.000000
            CHANNELS 3 Zrotation Xrotation Yrotation
            JOINT Neck
            {
                OFFSET -0.000000 37.404057 3.400369
                CHANNELS 3 Zrotation Xrotation Yrotation
                JOINT Head
                {
                    OFFSET -0.000000 24.785618 -3.540803
                    CHANNELS 3 Zrotation Xrotation Yrotation
                    End Site
                    {
                        OFFSET -0.000000 35.408028 0.000000
                    }
                }
            }
            JOINT LeftShoulder
            {
                OFFSET 6.992933 33.973492 -0.192664
                CHANNELS 3 Zrotation Xrotation Yrotation
                JOINT LeftArm
                {
                    OFFSET 21.527611 0.000000 0.000000
                    CHANNELS 3 Zrotation Xrotation Yrotation
                    JOINT LeftForeArm
                    {
                        OFFSET 56.353916 0.000000 0.000000
                        CHANNELS 3 Zrotation Xrotation Yrotation
                        JOINT LeftHand
                        {
                            OFFSET 47.774071 0.000000 0.000000
                            CHANNELS 3 Zrotation Xrotation Yrotation
                            End Site
                            {
                                OFFSET 26.556021 0.000000 0.000000
                            }
                        }
                    }
                }
            }
            JOINT RightShoulder
            {
                OFFSET -7.065357 33.973492 -0.192664
                CHANNELS 3 Zrotation Xrotation Yrotation
                JOINT RightArm
                {
                    OFFSET -21.527611 0.000000 0.000000
                    CHANNELS 3 Zrotation Xrotation Yrotation
                    JOINT RightForeArm
                    {
                        OFFSET -56.353916 0.000000 0.000000
                        CHANNELS 3 Zrotation Xrotation Yrotation
                        JOINT RightHand
                        {
                            OFFSET -47.774071 0.000000 0.000000
                            CHANNELS 3 Zrotation Xrotation Yrotation
                            End Site
                            {
                                OFFSET -26.556021 0.000000 0.000000
                            }
                        }
                    }
                }
            }
        }
    }
    JOINT LeftUpLeg
    {
        OFFSET 17.704014 0.000000 0.000000
        CHANNELS 3 Zrotation Xrotation Yrotation
        JOINT LeftLeg
        {
            OFFSET -0.000000 -81.181816 0.000000
            CHANNELS 3 Zrotation Xrotation Yrotation
            JOINT LeftFoot
            {
                OFFSET -0.000000 -62.821102 0.000000
                CHANNELS 3 Zrotation Xrotation Yrotation
                JOINT LeftToeBase
                {
                    OFFSET -0.000000 -11.507608 26.556021
                    CHANNELS 3 Zrotation Xrotation Yrotation
                    End Site
                    {
                        OFFSET -0.000000 0.000000 7.081605
                    }
                }
            }
        }
    }
    JOINT RightUpLeg
    {
        OFFSET -17.704014 0.000000 0.000000
        CHANNELS 3 Zrotation Xrotation Yrotation
        JOINT RightLeg
        {
            OFFSET -0.000000 -81.181816 0.000000
            CHANNELS 3 Zrotation Xrotation Yrotation
            JOINT RightFoot
            {
                OFFSET -0.000000 -62.821102 0.000000
                CHANNELS 3 Zrotation Xrotation Yrotation
                JOINT RightToeBase
                {
                    OFFSET -0.000000 -11.507608 26.556021
                    CHANNELS 3 Zrotation Xrotation Yrotation
                    End Site
                    {
                        OFFSET -0.000000 0.000000 7.081605
                    }
                }
            }
        }
    }
}
MOTION
Frames:    12
Frame Time:    0.008333
-10.328480    165.969635    -28.268360    -9.109650    -15.630466    40.892902    0.262645    -4.759573    -7.347316    16.191072    6.084391    -3.316672    32.502953    -1.782644    -1.746987    -7.069755    4.186578    -8.059108    16.484108    6.000140    -25.619555    -29.357771    19.312378    -61.822300    4.523977    -39.564499    -101.498192    -11.366272    -33.833672    -16.081486    16.441133    3.656339    -10.275638    23.607286    -4.773233    33.637589    -24.842907    -13.257418    58.784359    -4.596889    -0.385698    31.550531    14.461807    -1.529319    6.433540    -4.375073    28.548233    -15.073421    9.467978    -15.714867    31.755564    0.000000    0.000000    0.000000    -101.419785    -47.794518    -57.648140    6.707477    20.744757    -5.546547    10.670331    26.275633    -17.372450    0.000000    0.000000    0.000000    
-10.613131    166.019440    -28.281385    -9.230506    -15.728048    40.891434    0.271879    -4.631556    -7.340348    16.016825    6.219123    -3.323982    32.340591    -1.717779    -1.669285    -6.992533    3.902769    -7.939467    16.404854    5.990980    -25.561113    -29.401459    19.244514    -61.807896    4.558742    -39.552757    -101.434731    -11.334617    -33.796227    -16.062572    16.367460    3.652800    -10.226583    23.593252    -4.721140    33.713360    -24.696951    -13.194591    58.893482    -4.773370    -0.434889    31.732313    14.703675    -1.650643    6.434212    -4.374666    28.617710    -15.144347    9.414664    -15.695815    31.790083    0.000000    0.000000    0.000000    -101.249893    -47.872723    -57.612713    6.708072    20.742897    -5.553514    10.610228    26.265020    -17.359985    0.000000    0.000000    0.000000    
-10.897856    166.070526    -28.296930    -9.339037    -15.828816    40.896305    0.224178    -4.462339    -7.300141    15.896233    6.254773    -3.308105    32.341625    -1.552270    -1.653367    -7.124108    3.548870    -7.910568    16.326778    6.023956    -25.695555    -29.513910    19.149162    -61.704105    4.547383    -39.523762    -101.391899    -11.323883    -33.779453    -16.084873    16.339022    3.607067    -10.140034    23.508390    -4.774869    33.643524    -24.402918    -12.992065    59.050999    -5.040189    -0.443932    31.947853    14.935130    -1.761430    6.388829    -4.395878    28.690407    -15.168403    9.150133    -15.746215    31.833281    0.000000    0.000000    0.000000    -101.073143    -47.946075    -57.547024    6.710794    20.738762    -5.516634    10.618283    26.227125    -17.402273    0.000000    0.000000    0.000000    
-11.173436    166.124008    -28.300989    -9.439756    -15.936581    40.912994    0.218472    -4.316100    -7.296881    15.730761    6.376774    -3.314583    32.180450    -1.484306    -1.599008    -7.060177    3.265037    -7.816110    16.216999    6.022049    -25.656963    -29.565996    19.089228    -61.671467    4.469621    -39.471836    -101.420738    -11.276241    -33.807899    -16.062658    16.251677    3.699076    -10.080074    23.441601    -4.946442    34.019600    -24.847172    -13.505833    58.680210    -4.275270    -0.603067    32.172852    15.164904    -1.861583    6.339127    -4.407350    28.745998    -15.188236    9.087249    -15.717594    31.853354    0.000000    0.000000    0.000000    -100.904175    -48.017948    -57.669586    6.639383    20.797306    -5.299279    10.572686    26.165281    -17.375866    0.000000    0.000000    0.000000    
-11.457003    166.170792    -28.310061    -9.541865    -16.046791    40.911377    0.212153    -4.160448    -7.283258    15.553269    6.508231    -3.317805    32.030201    -1.364696    -1.547850    -6.981753    2.888160    -7.715649    16.139496    6.044789    -25.603857    -29.597477    19.016670    -61.677540    4.445995    -39.448917    -101.411064    -11.286730    -33.804985    -16.086943    16.142986    3.663068    -10.000159    23.533918    -4.806665    33.745525    -24.594282    -12.818875    59.143143    -4.479776    0.047076    31.703796    15.396006    -1.945619    6.305517    -4.413768    28.787163    -15.196980    9.050818    -15.691239    31.856216    0.000000    0.000000    0.000000    -100.715942    -48.104881    -57.546329    6.653095    20.792030    -5.354952    10.562175    26.118423    -17.368420    0.000000    0.000000    0.000000    
-11.737754    166.207199    -28.318092    -9.631361    -16.149715    40.917671    0.208920    -4.002501    -7.259458    15.335362    6.634720    -3.314243    31.870825    -1.331995    -1.492231    -6.841893    2.615276    -7.620399    16.068993    6.068785    -25.593597    -29.599005    18.973894    -61.691139    4.493020    -39.505703    -101.360558    -11.356548    -33.812435    -16.105597    16.039145    3.617411    -9.936846    23.587080    -4.811538    33.751740    -24.502907    -12.644541    59.228474    -4.520895    0.186053    31.653288    15.606699    -2.018874    6.298772    -4.383245    28.677286    -15.209453    9.172274    -15.496702    31.777882    0.000000    0.000000    0.000000    -100.541458    -48.183105    -57.448311    6.660420    20.777170    -5.407255    10.534736    26.096945    -17.338402    0.000000    0.000000    0.000000    
-12.025314    166.248199    -28.314491    -9.721642    -16.289793    40.924942    0.214505    -3.807529    -7.235661    15.145673    6.754686    -3.311085    31.652891    -1.284273    -1.445537    -6.630685    2.308856    -7.512612    15.975784    6.062222    -25.562626    -29.627689    18.965233    -61.689014    4.518579    -39.534279    -101.342331    -11.363464    -33.818527    -16.096762    15.938319    3.555117    -9.881658    23.596943    -4.735612    33.755627    -24.478369    -12.534404    59.221832    -4.461969    0.291876    31.822943    15.848702    -2.044642    6.322786    -4.347330    28.665537    -15.270225    9.126173    -15.498536    31.739641    0.000000    0.000000    0.000000    -100.322861    -48.276588    -57.310963    6.660482    20.799530    -5.484827    10.488824    26.054110    -17.266081    0.000000    0.000000    0.000000    
-12.297635    166.284409    -28.300053    -9.779210    -16.419111    40.950134    0.196822    -3.670110    -7.196771    14.928432    6.961902    -3.312058    31.401751    -1.285957    -1.411285    -6.349852    2.036436    -7.414666    15.893235    6.074741    -25.601692    -29.619608    18.886642    -61.662483    4.529736    -39.553223    -101.328011    -11.405897    -33.817467    -16.168882    15.803816    3.519715    -9.829957    23.666609    -4.688681    33.755806    -24.476788    -12.428639    59.277515    -4.442805    0.419977    31.843760    16.052225    -2.033367    6.343357    -4.301927    28.614178    -15.331259    8.866088    -15.557970    31.705442    0.000000    0.000000    0.000000    -100.103706    -48.343174    -57.177681    6.650046    20.801418    -5.456347    10.461011    25.973448    -17.238594    0.000000    0.000000    0.000000    
-12.592010    166.314285    -28.289795    -9.847117    -16.529453    40.956287    0.170508    -3.483929    -7.178308    14.697470    7.089357    -3.307750    31.295317    -1.218838    -1.360260    -6.262102    1.702637    -7.331234    15.825181    6.101279    -25.551203    -29.605600    18.873795    -61.692234    4.560982    -39.596077    -101.314201    -11.444179    -33.829510    -16.155005    15.709470    3.510615    -9.734631    23.714590    -4.680024    33.739815    -24.407764    -12.332003    59.356487    -4.418633    0.501396    31.975845    16.262033    -2.058407    6.413832    -4.249144    28.590677    -15.445272    9.040987    -15.492219    31.673998    0.000000    0.000000    0.000000    -99.925621    -48.440395    -57.078884    6.631073    20.810530    -5.446435    10.386836    25.919262    -17.176142    0.000000    0.000000    0.000000    
-12.874125    166.343445    -28.288048    -9.894364    -16.644285    40.974712    0.165420    -3.284627    -7.156405    14.403227    7.225375    -3.299086    31.064871    -1.197601    -1.329351    -5.910811    1.422742    -7.222913    15.791592    6.110151    -25.506676    -29.662889    18.827204    -61.693565    4.539845    -39.540920    -101.329735    -11.479587    -33.781113    -16.213455    15.648281    3.496204    -9.678965    23.733566    -4.594672    33.771664    -24.382418    -12.271256    59.376537    -4.452759    0.552521    31.777830    16.441610    -2.070040    6.441626    -4.186174    28.565132    -15.512787    8.999891    -15.484735    31.630640    0.000000    0.000000    0.000000    -99.739029    -48.535641    -56.949745    6.600725    20.827888    -5.444876    10.333796    25.868149    -17.102442    0.000000    0.000000    0.000000    
-13.159741    166.384506    -28.267216    -9.954248    -16.783962    41.006592    0.189863    -3.098433    -7.142077    14.097830    7.369706    -3.292830    30.957930    -1.240869    -1.294302    -5.783794    1.260634    -7.171796    15.736647    6.157657    -25.496990    -29.678120    18.766674    -61.681313    4.504512    -39.503803    -101.369431    -11.480838    -33.774254    -16.208323    15.595835    3.515086    -9.603248    23.749432    -4.489631    33.768593    -24.468712    -12.252249    59.341103    -4.362195    0.633331    31.933426    16.650888    -2.081560    6.475839    -4.103786    28.554440    -15.604479    8.939568    -15.476023    31.568430    0.000000    0.000000    0.000000    -99.503204    -48.611977    -56.777580    6.591505    20.845020    -5.408580    10.226719    25.766605    -17.034103    0.000000    0.000000    0.000000    
-13.437906    166.439667    -28.249222    -10.030693    -16.934258    41.025249    0.211034    -2.917083    -7.118581    13.866794    7.518161    -3.288202    30.710060    -1.237666    -1.240405    -5.476499    1.016598    -7.043463    15.610954    6.191582    -25.463371    -29.671040    18.744278    -61.697578    4.495593    -39.486885    -101.369484    -11.494439    -33.762814    -16.216648    15.481206    3.511270    -9.587820    23.791033    -4.412899    33.828247    -24.412626    -12.181026    59.391525    -4.425942    0.674591    31.793732    16.870501    -2.103915    6.496027    -4.015624    28.565756    -15.700222    8.857683    -15.462219    31.547796    0.000000    0.000000    0.000000    -99.228180    -48.689438    -56.549881    6.599815    20.838039    -5.355980    10.155138    25.663990    -17.010572    0.000000    0.000000    0.000000    
